<svg width="512" height="512" viewBox="0 0 512 512" fill="none" xmlns="http://www.w3.org/2000/svg">
  <defs>
    <linearGradient id="g" x1="0" y1="0" x2="1" y2="1">
      <stop offset="0%" stop-color="#5B8CFF"/>
      <stop offset="100%" stop-color="#7C3AED"/>
    </linearGradient>
  </defs>
  <rect width="512" height="512" rx="128" fill="url(#g)"/>
  <path d="M164 154h80v204c0 24-8 43-24 57-16 14-36 21-60 21-23 0-42-7-57-20-15-14-23-32-23-56h64c0 10 3 17 9 23 6 6 14 9 24 9 11 0 20-4 26-11 6-7 10-17 10-29V154Zm104 236v-56c18 14 38 21 60 21 16 0 28-3 36-8 8-6 12-14 12-25 0-12-7-20-21-24-10-3-23-6-40-10-27-6-46-15-58-28-12-13-18-29-18-49 0-23 9-41 27-55 18-14 42-21 72-21 24 0 46 5 66 15v54c-19-12-39-18-60-18-14 0-25 3-33 8-8 5-12 13-12 23 0 11 7 19 20 23 8 3 20 6 36 10 28 7 48 16 60 29 12 13 18 30 18 50 0 24-9 43-28 57-19 14-44 21-76 21-26 0-50-6-70-17Z" fill="#F8FAFC"/>
</svg>
