<svg width="1200" height="630" viewBox="0 0 1200 630" fill="none" xmlns="http://www.w3.org/2000/svg">
  <defs>
    <linearGradient id="bg" x1="0" y1="0" x2="1" y2="1">
      <stop offset="0%" stop-color="#EEF2FF"/>
      <stop offset="100%" stop-color="#C7D2FE"/>
    </linearGradient>
    <linearGradient id="g" x1="0" y1="0" x2="1" y2="1">
      <stop offset="0%" stop-color="#5B8CFF"/>
      <stop offset="100%" stop-color="#7C3AED"/>
    </linearGradient>
  </defs>
  <rect width="1200" height="630" fill="url(#bg)"/>
  <circle cx="1050" cy="-40" r="220" fill="#A5B4FC" opacity="0.35"/>
  <circle cx="-40" cy="560" r="240" fill="#818CF8" opacity="0.3"/>
  <rect x="120" y="130" width="180" height="180" rx="44" fill="url(#g)"/>
  <path d="M166 163h56v121c0 14-5 25-15 33-10 8-22 12-35 12-14 0-25-4-34-12-9-8-14-18-14-32h45c0 6 2 10 5 14 3 3 8 5 14 5 6 0 11-2 15-6 4-4 7-10 7-17V163Zm76 141v-33c11 8 22 12 35 12 9 0 16-2 21-5 5-3 7-8 7-14 0-7-4-11-12-14-6-2-13-4-23-6-16-4-27-9-34-16-7-8-11-17-11-29 0-13 5-24 16-32 11-8 24-12 42-12 14 0 27 3 39 9v32c-11-7-23-11-35-11-8 0-15 2-19 5-5 3-7 7-7 13 0 6 4 11 12 13 5 2 12 4 21 6 16 4 28 10 35 17 7 8 11 17 11 29 0 14-5 25-17 33-11 8-26 12-44 12-15 0-29-4-41-10Z" fill="#F8FAFC"/>
  <text x="340" y="220" fill="#111827" font-family="Inter, Arial, sans-serif" font-size="54" font-weight="700">JobStack</text>
  <text x="340" y="280" fill="#4B5563" font-family="Inter, Arial, sans-serif" font-size="28">Agregator ofert pracy IT w Polsce</text>
  <text x="340" y="360" fill="#111827" font-family="Inter, Arial, sans-serif" font-size="30" font-weight="600">Start 2026 • Przez długi czas za darmo</text>
  <text x="340" y="410" fill="#4B5563" font-family="Inter, Arial, sans-serif" font-size="24">Dołącz i korzystaj bez opłat</text>
</svg>
